<svg xmlns="http://www.w3.org/2000/svg" width="900" height="700" viewBox="0 0 900 700" role="img" aria-label="GitHub profile statistics"><defs><linearGradient id="bg" x1="0" x2="1" y1="0" y2="1"><stop stop-color="#0b1020"/><stop offset="1" stop-color="#17113a"/></linearGradient></defs><rect width="900" height="700" rx="24" fill="url(#bg)"/><circle cx="820" cy="70" r="130" fill="#7c3aed" opacity=".11"/><circle cx="70" cy="650" r="170" fill="#06b6d4" opacity=".08"/><text x="52" y="60" fill="#f8fafc" font-size="27" font-weight="700" font-family="-apple-system,BlinkMacSystemFont,Segoe UI,sans-serif">GitHub activity</text><text x="52" y="87" fill="#94a3b8" font-size="13" font-family="-apple-system,BlinkMacSystemFont,Segoe UI,sans-serif">mogilevtsevdmitry · данные из GitHub API</text><rect x="52" y="116" width="190" height="92" rx="16" fill="#111827" stroke="#26324a"/><rect x="52" y="116" width="5" height="92" rx="2.5" fill="#8b5cf6"/><text x="74" y="147" fill="#94a3b8" font-size="13" font-family="-apple-system,BlinkMacSystemFont,Segoe UI,sans-serif">PUBLIC PROJECTS</text><text x="74" y="185" fill="#f8fafc" font-size="29" font-weight="700" font-family="-apple-system,BlinkMacSystemFont,Segoe UI,sans-serif">63</text><rect x="258" y="116" width="190" height="92" rx="16" fill="#111827" stroke="#26324a"/><rect x="258" y="116" width="5" height="92" rx="2.5" fill="#f59e0b"/><text x="280" y="147" fill="#94a3b8" font-size="13" font-family="-apple-system,BlinkMacSystemFont,Segoe UI,sans-serif">TOTAL STARS</text><text x="280" y="185" fill="#f8fafc" font-size="29" font-weight="700" font-family="-apple-system,BlinkMacSystemFont,Segoe UI,sans-serif">143</text><rect x="464" y="116" width="190" height="92" rx="16" fill="#111827" stroke="#26324a"/><rect x="464" y="116" width="5" height="92" rx="2.5" fill="#06b6d4"/><text x="486" y="147" fill="#94a3b8" font-size="13" font-family="-apple-system,BlinkMacSystemFont,Segoe UI,sans-serif">FORKS</text><text x="486" y="185" fill="#f8fafc" font-size="29" font-weight="700" font-family="-apple-system,BlinkMacSystemFont,Segoe UI,sans-serif">26</text><rect x="670" y="116" width="178" height="92" rx="16" fill="#111827" stroke="#26324a"/><rect x="670" y="116" width="5" height="92" rx="2.5" fill="#22c55e"/><text x="692" y="147" fill="#94a3b8" font-size="13" font-family="-apple-system,BlinkMacSystemFont,Segoe UI,sans-serif">ACTIVE / 365D</text><text x="692" y="185" fill="#f8fafc" font-size="29" font-weight="700" font-family="-apple-system,BlinkMacSystemFont,Segoe UI,sans-serif">15</text><text x="52" y="274" fill="#f8fafc" font-size="19" font-weight="700" font-family="-apple-system,BlinkMacSystemFont,Segoe UI,sans-serif">Языки в проектах</text><text x="52" y="298" fill="#94a3b8" font-size="12" font-family="-apple-system,BlinkMacSystemFont,Segoe UI,sans-serif">по объёму исходного кода, без форков</text><text x="62" y="382" fill="#e2e8f0" font-size="13" font-family="-apple-system,BlinkMacSystemFont,Segoe UI,sans-serif">TypeScript</text><rect x="180" y="369" width="500" height="10" rx="5" fill="#1e293b"/><rect x="180" y="369" width="282.02376010529173" height="10" rx="5" fill="#7c3aed"/><text x="700" y="382" fill="#94a3b8" font-size="12" text-anchor="end" font-family="-apple-system,BlinkMacSystemFont,Segoe UI,sans-serif">56.4%</text><text x="62" y="413" fill="#e2e8f0" font-size="13" font-family="-apple-system,BlinkMacSystemFont,Segoe UI,sans-serif">Python</text><rect x="180" y="400" width="500" height="10" rx="5" fill="#1e293b"/><rect x="180" y="400" width="125.48712624154781" height="10" rx="5" fill="#06b6d4"/><text x="700" y="413" fill="#94a3b8" font-size="12" text-anchor="end" font-family="-apple-system,BlinkMacSystemFont,Segoe UI,sans-serif">25.1%</text><text x="62" y="444" fill="#e2e8f0" font-size="13" font-family="-apple-system,BlinkMacSystemFont,Segoe UI,sans-serif">HTML</text><rect x="180" y="431" width="500" height="10" rx="5" fill="#1e293b"/><rect x="180" y="431" width="35.50507005367113" height="10" rx="5" fill="#22c55e"/><text x="700" y="444" fill="#94a3b8" font-size="12" text-anchor="end" font-family="-apple-system,BlinkMacSystemFont,Segoe UI,sans-serif">7.1%</text><text x="62" y="475" fill="#e2e8f0" font-size="13" font-family="-apple-system,BlinkMacSystemFont,Segoe UI,sans-serif">JavaScript</text><rect x="180" y="462" width="500" height="10" rx="5" fill="#1e293b"/><rect x="180" y="462" width="22.513756755646554" height="10" rx="5" fill="#f59e0b"/><text x="700" y="475" fill="#94a3b8" font-size="12" text-anchor="end" font-family="-apple-system,BlinkMacSystemFont,Segoe UI,sans-serif">4.5%</text><text x="62" y="506" fill="#e2e8f0" font-size="13" font-family="-apple-system,BlinkMacSystemFont,Segoe UI,sans-serif">Go</text><rect x="180" y="493" width="500" height="10" rx="5" fill="#1e293b"/><rect x="180" y="493" width="15.846359824028413" height="10" rx="5" fill="#f43f5e"/><text x="700" y="506" fill="#94a3b8" font-size="12" text-anchor="end" font-family="-apple-system,BlinkMacSystemFont,Segoe UI,sans-serif">3.2%</text><text x="62" y="537" fill="#e2e8f0" font-size="13" font-family="-apple-system,BlinkMacSystemFont,Segoe UI,sans-serif">CSS</text><rect x="180" y="524" width="500" height="10" rx="5" fill="#1e293b"/><rect x="180" y="524" width="11.100249904236215" height="10" rx="5" fill="#8b5cf6"/><text x="700" y="537" fill="#94a3b8" font-size="12" text-anchor="end" font-family="-apple-system,BlinkMacSystemFont,Segoe UI,sans-serif">2.2%</text><text x="62" y="568" fill="#e2e8f0" font-size="13" font-family="-apple-system,BlinkMacSystemFont,Segoe UI,sans-serif">Vue</text><rect x="180" y="555" width="500" height="10" rx="5" fill="#1e293b"/><rect x="180" y="555" width="8" height="10" rx="5" fill="#14b8a6"/><text x="700" y="568" fill="#94a3b8" font-size="12" text-anchor="end" font-family="-apple-system,BlinkMacSystemFont,Segoe UI,sans-serif">0.9%</text><text x="62" y="599" fill="#e2e8f0" font-size="13" font-family="-apple-system,BlinkMacSystemFont,Segoe UI,sans-serif">Shell</text><rect x="180" y="586" width="500" height="10" rx="5" fill="#1e293b"/><rect x="180" y="586" width="8" height="10" rx="5" fill="#fb7185"/><text x="700" y="599" fill="#94a3b8" font-size="12" text-anchor="end" font-family="-apple-system,BlinkMacSystemFont,Segoe UI,sans-serif">0.6%</text><line x1="52" y1="638" x2="848" y2="638" stroke="#26324a"/><text x="52" y="665" fill="#64748b" font-size="11" font-family="-apple-system,BlinkMacSystemFont,Segoe UI,sans-serif">Обновляется ежедневно · workflow: profile-stats.yml</text></svg>